<?xml version="1.0" encoding="utf-8"?>
<!-- Generator: Adobe Illustrator 28.1.0, SVG Export Plug-In . SVG Version: 6.00 Build 0)  -->
<svg version="1.0" id="katman_1" xmlns="http://www.w3.org/2000/svg" xmlns:xlink="http://www.w3.org/1999/xlink" x="0px" y="0px"
	 viewBox="0 0 841.89 595.28" style="enable-background:new 0 0 841.89 595.28;" xml:space="preserve">
<style type="text/css">
	.st0{clip-path:url(#SVGID_00000166666431225013322470000017454646964728126107_);}
	.st1{fill:#E4151D;}
	.st2{fill:#FFFFFF;}
</style>
<g>
	<defs>
		<rect id="SVGID_1_" x="67.6" y="74.43" width="706.85" height="445.96"/>
	</defs>
	<clipPath id="SVGID_00000068656969025909577760000010453738123418052027_">
		<use xlink:href="#SVGID_1_"  style="overflow:visible;"/>
	</clipPath>
	<g style="clip-path:url(#SVGID_00000068656969025909577760000010453738123418052027_);">
		<path class="st1" d="M420.7,520.39c195.01,0,353.09-99.83,353.09-222.98c0-123.15-158.08-222.98-353.09-222.98
			c-195.01,0-353.1,99.83-353.1,222.98C67.6,420.56,225.69,520.39,420.7,520.39z"/>
		<path class="st2" d="M167.67,293.49c0-1.79,0.89-3.13,3.36-4.15c4.25-1.56,5.04-3.59,4.92-8.16v-48.47
			c0.11-4.59-0.79-6.6-5.04-8.28c-2.47-1-3.24-2.35-3.24-4.15c0-2.68,1.91-4.15,4.59-4.03h39.51c15.22,0,24.74,7.5,24.74,20.26
			c0,5.6-2.68,10.19-10.4,15.11c-1.68,1-1.68,2.35-0.23,3.13c10.19,5.15,14.55,11.98,14.55,20.82c0,14.89-12.65,22.05-24.96,22.05
			h-43.2c-2.68,0-4.59-1.45-4.59-4.15V293.49z M194.65,252.86c3.69-0.79,11.98-3.03,14.66-3.69c6.27-1.68,9.84-5.6,9.84-10.75
			c0-6.94-4.59-10.96-12.31-10.96h-11.98c-1.91,0-2.8,0.89-2.8,2.8v20.37c0,2.12,0.67,2.57,2.57,2.24L194.65,252.86z M206.07,287
			c10.75,0,17.02-5.26,17.02-12.98c0-4.59-2.47-8.28-6.49-10.63c-2.57-1.56-5.82-2.8-9.28-2.8s-8.18,1.35-12.98,2.91
			c-1.56,0.45-2.24,1.45-2.24,3.03v10.41c0,8.17,4.59,10.07,13.99,10.07L206.07,287z"/>
		<path class="st2" d="M241.75,293.84c0-1.68,0.89-2.91,3.36-4.03c2.91-1.35,3.69-3.13,3.59-7.72v-29.21
			c0.11-4.48-0.79-6.38-4.15-7.83c-2.35-1.12-3.03-2.35-3.03-4.03c0-2.47,1.68-3.8,4.25-3.69h13.76c2.12,0,3.36,1.12,4.03,3.59
			l0.45,1.45c0.33,1.12,1.35,1.12,2.24,0.11c4.15-4.48,7.72-5.71,11.08-5.71c4.03,0,7.05,2.12,7.05,8.84
			c0,6.71-2.57,12.31-5.6,12.31c-1.23,0-2.47-0.89-3.69-2.91c-1.79-2.8-2.91-3.92-5.71-3.92c-3.59,0-5.82,2.8-5.82,7.16v23.39
			c-0.11,4.7,0.79,6.6,4.48,7.95c3.03,1.12,4.03,2.47,4.03,4.15c0,2.57-2.12,3.92-5.26,3.92h-20.7c-2.57,0-4.36-1.35-4.36-3.8
			H241.75z"/>
		<path class="st2" d="M285.28,267.98c0-18.91,13.43-32.34,32.45-32.34c17.35,0,30.66,13.99,30.66,32.01
			c0,18.02-13.32,31.68-30.78,31.68c-17.46,0-32.34-13.76-32.34-31.34V267.98z M319.42,288.24c7.95,0,13.54-6.71,13.54-16.01
			c0-13.2-8.51-25.52-18.69-25.52c-7.95,0-13.66,6.6-13.66,15.9c0,13.32,8.72,25.63,18.8,25.63L319.42,288.24z"/>
		<path class="st2" d="M347.84,293.84c0-1.68,0.89-2.91,3.36-4.03c2.91-1.35,3.69-3.13,3.59-7.72v-29.21
			c0.11-4.48-0.79-6.38-4.15-7.83c-2.35-1.12-3.03-2.35-3.03-4.03c0-2.47,1.68-3.8,4.25-3.69h13.88c2.12,0,3.03,1.45,3.69,4.59
			c0.23,1.35,1.45,1.56,2.57,0.33c3.36-3.92,9.4-6.6,16.23-6.6c6.83,0,12.42,2.91,16.79,7.95c0.56,0.56,0.79,0.89,1.35,0.89
			c0.56,0,1-0.45,1.45-1c4.81-5.04,9.4-7.5,15.9-7.5c14.32,0,21.38,7.5,21.38,22.17v23.95c-0.11,4.59,0.67,6.38,3.59,7.72
			c2.47,1.12,3.36,2.35,3.36,4.03c0,2.47-1.79,3.8-4.36,3.8h-19.93c-3.36,0-4.92-2.01-4.92-4.36c0-1.45,1.12-2.8,3.24-3.8
			c3.03-1.56,4.14-2.8,4.14-7.5v-21.94c0-7.27-3.36-11.86-11.42-11.86c-6.48,0-11.42,5.15-11.42,12.31l-0.11,19.25
			c0,5.26,0.67,7.39,4.14,8.95c2.8,1.23,3.8,2.68,3.8,4.59c0,2.8-2.01,4.36-5.04,4.36h-20.14c-3.36,0-4.81-2.01-4.81-4.36
			c0-1.45,1-2.8,3.24-3.92c3.03-1.45,4.03-2.68,4.03-7.39v-22.73c0-7.83-4.15-12.2-11.08-12.2c-6.93,0-11.64,5.37-11.64,12.2v22.05
			c-0.12,4.81,0.79,6.71,4.36,8.16c2.91,1.12,3.92,2.47,3.92,4.15c0,2.57-2.12,4.03-5.15,4.03h-20.7c-2.57,0-4.36-1.35-4.36-3.8
			H347.84z"/>
		<path class="st2" d="M449.02,314.43c0-1.68,0.89-2.91,3.36-4.03c2.91-1.35,3.69-3.13,3.59-7.72v-49.8
			c0.11-4.48-0.79-6.38-4.14-7.83c-2.35-1.12-3.03-2.35-3.03-4.03c0-2.47,1.68-3.8,4.25-3.69h13.43c2.35,0,3.36,1.35,4.25,4.48
			c0.45,1.45,1.57,1.79,2.91,0.33c3.36-3.92,8.95-6.27,15.11-6.27c15.22,0,27.09,11.98,27.09,28.88c0,20.7-14.32,34.69-33.46,34.69
			c-3.36,0-6.38-0.79-7.95-1.35c-0.67-0.23-1.23-0.23-1.79-0.23c-1.12,0-1.79,0.89-1.79,2.68v1.35c-0.12,4.81,0.79,6.71,4.36,8.16
			c2.91,1.12,3.92,2.47,3.92,4.15c0,2.57-2.13,4.03-5.15,4.03h-20.59C450.8,318.23,449.01,316.88,449.02,314.43L449.02,314.43z
			 M483.83,288.9c9.18,0,16.56-8.62,16.56-20.26c0-9.84-6.15-20.14-16.56-20.14c-6.6,0-12.75,5.48-12.87,12.2l-0.23,14.32
			c-0.11,9.84,4.36,13.88,13.1,13.88V288.9z"/>
		<path class="st2" d="M521.76,285c0-4.48,0.79-11.19,1.68-18.58c0.89-7.05,1.8-12.98,1.8-16.56c0-3.03-0.79-3.47-6.16-3.36
			c-3.8,0.11-4.59-1.35-4.59-4.03c0-2.12,1-2.91,2.68-3.92c3.24-1.91,5.15-3.13,7.16-5.26c1.79-1.91,3.59-4.48,5.71-8.39
			c1-1.79,2.12-2.35,4.03-2.35c2.47,0,3.59,0.89,3.47,3.47l-0.33,8.62c-0.12,2.47,0.45,2.68,4.36,2.68h4.48
			c3.03,0,3.92,1.35,3.92,5.26s-1.45,4.81-4.81,4.81h-4.25c-3.13,0-3.47,0.23-3.47,4.15c-0.12,11.31-0.33,21.94-0.33,31
			c0,3.8,1.23,4.81,7.28,6.27c4.48,1.12,6.38,1.45,6.38,4.81c0,2.91-1.56,4.03-4.81,4.03c-5.27,0-10.41,0.11-13.32,0
			c-7.62-0.33-10.86-4.15-10.86-12.65H521.76z"/>
		<path class="st2" d="M547.84,267.98c0-18.91,13.43-32.34,32.45-32.34c17.35,0,30.66,13.99,30.66,32.01
			c0,18.02-13.31,31.68-30.77,31.68s-32.34-13.76-32.34-31.34V267.98z M581.97,288.24c7.95,0,13.54-6.71,13.54-16.01
			c0-13.2-8.51-25.52-18.69-25.52c-7.95,0-13.66,6.6-13.66,15.9c0,13.32,8.72,25.63,18.8,25.63L581.97,288.24z"/>
		<path class="st2" d="M610.51,293.84c0-1.68,0.89-2.91,3.36-4.03c2.91-1.35,3.69-3.13,3.59-7.72v-29.21
			c0.11-4.48-0.79-6.38-4.14-7.83c-2.35-1.12-3.03-2.35-3.03-4.03c0-2.47,1.68-3.8,4.25-3.69h13.31c2.35,0,3.36,1.68,4.14,4.7
			c0.45,1.45,1.35,1.79,2.57,0.33c3.8-4.48,9.4-6.71,15.34-6.71c9.96,0,16.79,5.48,18.58,16.67l4.47,28.65
			c0.67,4.36,2.01,6.71,3.92,7.95c3.13,1.79,4.03,3.13,4.03,5.37c0,2.24-1.23,3.36-3.92,3.36H665.9c-6.6,0-7.27-4.59-8.18-12.42
			l-2.91-25.74c-0.89-7.72-4.81-11.08-11.42-11.08s-11.08,4.48-11.08,10.19v22.73c-0.12,4.81,0.79,6.71,4.36,8.16
			c2.91,1.12,3.92,2.47,3.92,4.15c0,2.57-2.13,4.03-5.15,4.03h-20.59c-2.57,0-4.36-1.35-4.36-3.8L610.51,293.84z"/>
		<path class="st2" d="M255.39,389.42c0-1.79,0.89-3.13,3.36-4.14c4.25-1.56,5.04-3.59,4.92-8.16v-48.47
			c0.11-4.59-0.67-6.6-4.92-8.18c-2.47-1.01-3.36-2.35-3.36-4.15c0-2.68,1.91-4.15,4.59-4.15h23.84c3.03,0,5.04,1.45,5.04,4.15
			c0,1.79-0.89,3.13-3.59,4.15c-4.81,1.56-5.6,3.59-5.48,8.18v11.98c0,2.68,1.23,3.92,3.92,3.92h27.76c2.91,0,3.8-1,3.8-3.92v-11.98
			c0.11-4.59-0.67-6.6-5.48-8.18c-2.68-1.01-3.59-2.35-3.59-4.15c0-2.68,2.01-4.15,5.04-4.15h23.73c2.68,0,4.59,1.45,4.59,4.15
			c0,1.79-0.89,3.13-3.36,4.15c-4.25,1.56-5.04,3.59-4.92,8.18v48.47c-0.11,4.59,0.79,6.6,5.04,8.28c2.47,1,3.24,2.35,3.24,4.15
			c0,2.68-1.91,4.14-4.59,4.03h-23.84c-3.03,0-5.04-1.45-5.04-4.14c0-1.79,0.89-3.13,3.59-4.14c4.81-1.56,5.6-3.59,5.48-8.16v-13.88
			c0-5.04,0.23-6.27-4.03-6.27l-26.41-0.23c-3.92,0-4.92,0.11-4.92,3.92v16.46c-0.11,4.59,0.79,6.6,5.6,8.28
			c2.68,1,3.59,2.35,3.47,4.15c0,2.68-2.01,4.14-5.04,4.14l-4.15-0.12h-19.7C257.3,393.56,255.39,392.12,255.39,389.42z"/>
		<path class="st2" d="M338.2,363.91c0-18.91,13.43-32.34,32.45-32.34c17.35,0,30.66,13.99,30.66,32.01
			c0,18.02-13.31,31.68-30.77,31.68s-32.34-13.76-32.34-31.34V363.91z M372.34,384.17c7.95,0,13.54-6.71,13.54-16.01
			c0-13.2-8.51-25.52-18.69-25.52c-7.95,0-13.66,6.6-13.66,15.9c0,13.32,8.72,25.62,18.8,25.62L372.34,384.17z"/>
		<path class="st2" d="M407.59,377.78V348.8c0.12-4.48-0.79-6.38-4.14-7.83c-2.35-1.12-3.03-2.35-3.03-4.03
			c0-2.47,1.68-3.8,4.25-3.69h12.42c4.14,0,5.48,1.56,5.48,5.71l-0.12,34.13c0,7.04,3.47,10.3,10.52,10.3
			c7.61,0,14.1-5.27,14.1-11.98V348.8c0.11-4.48-0.89-6.38-4.92-7.95c-2.8-1-3.69-2.24-3.69-3.92c0.12-2.47,2.01-3.8,5.15-3.69
			h14.43c3.13,0,4.03,1.68,4.03,4.7l-0.12,40.07c-0.11,4.59,0.67,6.38,3.59,7.83c2.47,1.12,3.24,2.35,3.24,4.03
			c0,2.46-1.79,3.8-4.36,3.69h-12.42c-3.03,0-3.92-1-5.04-4.36c-0.56-1.45-1.91-1.68-2.91-0.33c-3.24,3.92-9.84,6.83-16.34,6.83
			c-9.63,0-20.15-5.04-20.15-17.91L407.59,377.78z"/>
		<path class="st2" d="M472.5,388.3c-3.92-3.47-3.8-7.05,0.67-12.76c0.89-1.23,1.91-1.91,3.13-1.91c1.79,0,3.24,1.79,6.04,4.7
			c5.26,5.48,9.96,7.72,14.43,7.72c5.71,0,9.96-3.36,9.96-7.05c0-4.14-3.69-6.94-15.67-10.19c-13.88-3.8-19.81-8.62-19.81-18.02
			c0-10.75,10.52-19.25,25.29-19.25c7.95,0,16.67,3.03,20.59,6.71c3.36,3.14,3.03,6.38-0.79,11.75c-0.89,1.12-1.79,1.68-2.91,1.68
			c-1.35,0-2.47-1.45-6.04-4.92c-4.59-4.25-8.73-6.16-12.98-6.16c-4.71,0-8.62,2.8-8.62,6.71s3.69,6.04,15.55,9.18
			c14.32,3.69,20.03,9.18,20.03,19.37c0,11.64-12.08,19.47-26.97,19.25c-9.07-0.12-17.91-3.36-21.94-6.83L472.5,388.3z"/>
		<path class="st2" d="M523.75,364.24c-0.67-19.58,16-32.34,31.12-32.34s27.65,11.08,27.65,23.5c0,4.48-2.47,7.62-6.49,8.72
			c-5.03,1.35-9.63,1.91-14.22,2.91c-5.15,1.12-10.4,3.59-13.31,6.48c-1.12,1-1.91,1.57-1.91,2.35s0.56,1.91,1.68,2.8
			c2.8,2.8,7.16,4.03,11.31,4.03c6.6,0,11.52-2.47,17.34-7.16c2.35-2.01,4.14-2.01,5.82-0.23c2.12,2.12,2.01,4.25,0,6.94
			c-5.48,7.72-16.46,12.64-26.75,12.64c-16.79,0-31.78-12.64-32.24-30.66H523.75z M541.33,366.36c0.56,0,1.35-0.33,2.46-1.12
			c4.36-3.24,11.64-6.94,17.23-8.62c3.36-1,5.27-2.47,5.27-4.59c0-4.48-6.27-9.74-13.54-9.74c-7.28,0-14.22,6.83-14.22,16.01
			C538.53,362.78,539.53,366.36,541.33,366.36z"/>
		<path class="st2" d="M579.67,330.71c0-5.76,4.52-10.28,10.41-10.28s10.48,4.52,10.48,10.28c0,5.76-4.52,10.35-10.48,10.35
			S579.67,336.53,579.67,330.71z M590.09,339.28c4.73,0,8.43-3.84,8.43-8.56c0-4.73-3.7-8.5-8.43-8.5s-8.36,3.84-8.36,8.5
			C581.73,335.37,585.43,339.28,590.09,339.28z M585.63,325.5c0-0.34,0.21-0.62,0.68-0.62h4.73c2.33,0,3.91,1.3,3.91,3.56
			c0,1.64-0.55,2.74-2.19,3.36c-0.41,0.14-0.48,0.41-0.14,0.82l2.47,2.67c0.41,0.41,0.34,0.82-0.21,0.82h-0.96
			c-0.48,0-0.75-0.14-0.96-0.34l-2.95-3.15c-0.41-0.41-0.62-0.55-1.1-0.55h-0.82c-0.34,0-0.41,0.14-0.41,0.48v2.95
			c0,0.41-0.21,0.62-0.55,0.62h-0.82c-0.48,0-0.68-0.21-0.68-0.62V325.5z M588.17,330.3h2.67c1.17,0,1.99-0.69,1.99-1.78
			c0-1.16-0.82-1.85-1.99-1.85h-2.74c-0.21,0-0.41,0.14-0.41,0.41v2.74C587.69,330.16,587.96,330.3,588.17,330.3z"/>
		<path class="st2" d="M587.24,386.29c0-5.71,4.48-10.3,9.84-10.3c5.37,0,9.28,4.48,9.28,9.4c0,5.48-4.36,9.63-9.74,9.63
			S587.23,391.21,587.24,386.29L587.24,386.29z"/>
	</g>
</g>
</svg>
